# AST/ASF file generated using VICON BodyLanguage
# -----------------------------------------------
:version 1.10
:name VICON
:units
  mass 1.0
  length 0.45
  angle deg
:documentation
   .ast/.asf automatically generated from VICON data using
   VICON BodyBuilder and BodyLanguage model FoxedUp or BRILLIANT.MOD
:root
   order TX TY TZ RX RY RZ
   axis XYZ
   position 0 0 0  
   orientation 0 0 0 
:bonedata
  begin
     id 1 
     name lhipjoint
     direction 0.692814 -0.645514 0.321437 
     length 2.38754 
     axis 0 0 0  XYZ
  end
  begin
     id 2 
     name lfemur
     direction 0.34202 -0.939693 0  
     length 6.41921  
     axis 0 0 20  XYZ
    dof rx ry rz
    limits (-160.0 20.0)
           (-70.0 70.0)
           (-60.0 70.0)
  end
  begin
     id 3 
     name ltibia
     direction 0.34202 -0.939693 0   
     length 6.98247   
     axis 0 0 20   XYZ
    dof rx
    limits (-10.0 170.0)
  end
  begin
     id 4 
     name lfoot
     direction 0.0947186 -0.260237 0.960888   
     length 1.83034   
     axis -90 7.62852e-016 20   XYZ
    dof rx rz
    limits (-45.0 90.0)
           (-70.0 20.0)
  end
  begin
     id 5 
     name ltoes
     direction 1.53538e-011 -4.21952e-011 1   
     length 0.920499   
     axis -90 7.62852e-016 20   XYZ
    dof rx
    limits (-90.0 20.0)
  end
  begin
     id 6 
     name rhipjoint
     direction -0.631686 -0.693949 0.345555   
     length 2.2209  
     axis 0 0 0  XYZ 
  end
  begin
     id 7 
     name rfemur
     direction -0.34202 -0.939693 0   
     length 6.49542   
     axis 0 0 -20   XYZ
    dof rx ry rz
    limits (-160.0 20.0)
           (-70.0 70.0)
           (-70.0 60.0)
  end
  begin
     id 8 
     name rtibia
     direction -0.34202 -0.939693 0   
     length 7.21712   
     axis 0 0 -20   XYZ
    dof rx
    limits (-10.0 170.0)
 end
 begin
     id 9 
     name rfoot
     direction -0.0825378 -0.226771 0.970444   
     length 1.89724  
     axis -90 -7.62852e-016 -20   XYZ
    dof rx rz
    limits (-45.0 90.0)
           (-20.0 70.0)
  end
  begin
     id 10 
     name rtoes
     direction -1.53515e-011 -4.22016e-011 1   
     length 0.955868   
     axis -90 -7.62852e-016 -20   XYZ
    dof rx
    limits (-90.0 20.0)
  end
  begin
     id 11 
     name lowerback
     direction -0.0104711 0.984802 -0.173368   
     length 1.84931   
     axis 0 0 0   XYZ
    dof rx ry rz
    limits (-20.0 45.0)
           (-30.0 30.0)
           (-30.0 30.0)
  end
  begin
     id 12 
     name upperback
     direction -0.00286433 0.999996 -0.000382853   
     length 1.85768   
     axis 0 0 0   XYZ
    dof rx ry rz
    limits (-20.0 45.0)
           (-30.0 30.0)
           (-30.0 30.0)
  end
  begin
     id 13 
     name thorax
     direction 0.00167534 0.996793 0.0800069   
     length 1.92   
     axis 0 0 0   XYZ
    dof rx ry rz
    limits (-20.0 45.0)
           (-30.0 30.0)
           (-30.0 30.0)
  end
  begin
     id 14 
     name lowerneck
     direction -0.0672491 0.995415 0.068018   
     length 1.58923   
     axis 0 0 0   XYZ
    dof rx ry rz
    limits (-20.0 45.0)
           (-30.0 30.0)
           (-30.0 30.0)
  end
  begin
     id 15 
     name upperneck
     direction 0.0958019 0.982476 -0.159884   
     length 1.60189   
     axis 0 0 0   XYZ
    dof rx ry rz
    limits (-20.0 45.0)
           (-30.0 30.0)
           (-30.0 30.0)
  end
  begin
     id 16
     name head
     direction 0.032989 0.997338 -0.0650226  
     length 1.61681  
     axis 0 0 0   XYZ
    dof rx ry rz
    limits (-20.0 45.0)
           (-30.0 30.0)
           (-30.0 30.0)
  end
  begin
     id 17 
     name lclavicle
     direction 0.954279 0.298875 -0.00496069  
     length 2.99449  
     axis 0 0 0   XYZ
    dof ry rz
    limits (-20.0 10.0)
           (0.0 20.0)
  end
  begin
     id 18 
     name lhumerus
     direction 1 -4.48985e-011 -4.2057e-027   
     length 4.79185   
     axis 180 -30 -90   XYZ
    dof rx ry rz
    limits (-60.0 90.0)
           (-90.0 90.0)
           (-90.0 90.0)
  end
  begin
     id 19
     name lradius
     direction 1 -4.48945e-011 1.15441e-028   
     length 2.65553   
     axis 180 -30 -90   XYZ
    dof rx
    limits (-10.0 170.0)
  end
  begin
     id 20
     name lwrist
     direction 1 -4.4899e-011 4.8894e-028   
     length 1.32777   
     axis -2.56392e-016 90 90   XYZ
    dof ry
    limits (-180.0 0.0)
 end
  begin
     id 21 
     name lhand
     direction 1 -4.48908e-011 9.7788e-028   
     length 0.743904   
     axis -6.23971e-016 90 90   XYZ
    dof rx rz
    limits (-90.0 90.0)
           (-45.0 45.0)
  end
  begin
     id 22 
     name lfingers
     direction 1 -4.49068e-011 1.95576e-027   
     length 0.599754   
     axis -1.24794e-015 90 90   XYZ
    dof rx
    limits (0.0 90.0)
  end
  begin
     id 23
     name lthumb
     direction 0.707107 -6.34883e-011 0.707107   
     length 0.861131   
     axis -90 45 2.85299e-015   XYZ
    dof rx rz
    limits (-45.0 45.0)
           (-45.0 45.0)
  end
  begin
     id 24 
     name rclavicle
     direction -0.957921 0.286916 0.00811568   
     length 3.06817  
     axis 0 0 0   XYZ 
    dof ry rz
    limits (-10.0 20.0)
           (-20.0 0.0)
  end
  begin
     id 25 
     name rhumerus
     direction -1 -4.48971e-011 -3.07942e-027  
     length 4.77254   
     axis 180 30 90   XYZ
    dof rx ry rz
    limits (-90.0 60.0)
           (-90.0 90.0)
           (-90.0 90.0)
  end
  begin
     id 26 
     name rradius
     direction -1 -4.48957e-011 -9.6815e-028   
     length 2.75995   
     axis 180 30 90   XYZ
    dof rx
    limits (-10.0 170.0)
  end
  begin
     id 27 
     name rwrist
     direction -1 -4.48979e-011 4.8894e-028   
     length 1.37997   
     axis -2.56392e-016 -90 -90   XYZ
    dof ry
    limits (-180.0 0.0)
  end
  begin
     id 28
     name rhand
     direction -1 -4.48906e-011 9.7788e-028   
     length 0.701619   
     axis -6.23971e-016 -90 -90   XYZ
    dof rx rz
    limits (-90.0 90.0)
           (-45.0 45.0)
  end
  begin
     id 29
     name rfingers
     direction -1 -4.49018e-011 1.95576e-027   
     length 0.565663   
     axis -1.24794e-015 -90 -90   XYZ
    dof rx
    limits (0.0 90.0)
  end
  begin
     id 30
     name rthumb
     direction -0.707107 -6.34881e-011 0.707107   
     length 0.812183   
     axis -90 -45 -2.85299e-015   XYZ
    dof rx rz
    limits (-45.0 45.0)
           (-45.0 45.0)
  end
:hierarchy
  begin
    root lhipjoint rhipjoint lowerback
    lhipjoint lfemur
    lfemur ltibia
    ltibia lfoot
    lfoot ltoes
    rhipjoint rfemur
    rfemur rtibia
    rtibia rfoot
    rfoot rtoes
    lowerback upperback
    upperback thorax
    thorax lowerneck lclavicle rclavicle
    lowerneck upperneck
    upperneck head
    lclavicle lhumerus
    lhumerus lradius
    lradius lwrist
    lwrist lhand lthumb
    lhand lfingers
    rclavicle rhumerus
    rhumerus rradius
    rradius rwrist
    rwrist rhand rthumb
    rhand rfingers
  end

#!OML:ASF F:\VICON\USERDATA\INSTALL\rory3\rory3.ASF
:FULLY-SPECIFIED
:DEGREES
421
root 0.451412 15.593 -1.31071 -1.27107 -2.14865 -0.0768538
lowerback 16.8309 0.538579 -1.45083
upperback 5.94925 0.449328 -0.401369
thorax -3.0951 0.212164 0.313574
lowerneck -12.3589 -6.7202 -10.6786
upperneck 14.2005 -8.82179 10.1425
head 7.32046 -3.98928 4.13557
rclavicle -1.03368e-014 6.55989e-015
rhumerus 46.0837 33.5822 -30.9118
rradius 41.4785
rwrist -42.2867
rhand -3.40486 9.50988
rfingers 7.12502
rthumb 22.3254 -19.2203
lclavicle -1.03368e-014 6.55989e-015
lhumerus 40.5412 -32.1785 31.4411
lradius 41.272
lwrist 52.3902
lhand 6.34932 18.1851
lfingers 7.12502
lthumb 31.6561 45.4595
rfemur -17.6014 8.74615 15.5327
rtibia 38.3576
rfoot -14.8632 -9.12978
rtoes -11.8146
lfemur -15.436 -6.0825 -16.9577
ltibia 35.3006
lfoot -13.7673 3.99071
ltoes -10.8417
422
root 0.453385 15.5889 -1.31943 -1.20397 -2.08932 -0.135075
lowerback 16.8091 0.503709 -1.37307
upperback 6.00765 0.417841 -0.386535
thorax -3.02099 0.196447 0.291562
lowerneck -12.5663 -6.71179 -10.5795
upperneck 14.1008 -8.79315 10.0932
head 7.3145 -3.96877 4.101
rclavicle -3.57812e-015 -5.96354e-016
rhumerus 46.9856 33.5489 -30.1902
rradius 41.5986
rwrist -42.5502
rhand -3.42456 9.58976
rfingers 7.12502
rthumb 22.3065 -19.1427
lclavicle -3.57812e-015 -5.96354e-016
lhumerus 41.254 -32.0887 30.9729
lradius 41.5857
lwrist 52.9095
lhand 6.3081 18.3169
lfingers 7.12502
lthumb 31.6169 45.5989
rfemur -17.7575 8.67619 15.5702
rtibia 38.4798
rfoot -14.8849 -9.13637
rtoes -12.0168
lfemur -15.6281 -6.1223 -16.8894
ltibia 35.4368
lfoot -13.8166 3.97087
ltoes -10.8913
423
root 0.454065 15.5846 -1.32669 -1.19111 -2.066 -0.195775
lowerback 16.8673 0.491742 -1.29259
upperback 6.07944 0.415043 -0.376254
thorax -2.97525 0.195068 0.257291
lowerneck -12.8775 -6.72732 -10.5069
upperneck 14.0685 -8.79326 10.0728
head 7.35434 -3.95743 4.07472
rclavicle 1.49089e-015 1.13307e-014
rhumerus 47.7172 33.4192 -29.6852
rradius 41.716
rwrist -42.733
rhand -3.15464 9.56644
rfingers 7.12502
rthumb 22.5655 -19.1348
lclavicle 1.49089e-015 1.13307e-014
lhumerus 41.9891 -32.0871 30.4094
lradius 41.9661
lwrist 53.4672
lhand 6.25857 18.3631
lfingers 7.12502
lthumb 31.5697 45.6544
rfemur -17.8529 8.62257 15.6246
rtibia 38.5931
rfoot -14.9398 -9.09942
rtoes -12.2079
lfemur -15.7588 -6.10848 -16.8216
ltibia 35.5732
lfoot -13.821 3.93461
ltoes -10.8228
424
root 0.451991 15.5794 -1.33641 -1.24192 -2.01172 -0.165166
lowerback 17.043 0.47189 -1.33048
upperback 6.12835 0.379222 -0.40294
thorax -3.01542 0.177283 0.25661
lowerneck -13.0844 -6.71762 -10.3975
upperneck 13.9681 -8.77021 10.047
head 7.34926 -3.93734 4.04582
rclavicle -5.66536e-015 -6.95746e-015
rhumerus 48.3987 33.4244 -29.1362
rradius 41.9797
rwrist -43.0903
rhand -3.14828 9.4497
rfingers 7.12502
rthumb 22.5717 -19.2508
lclavicle -5.66536e-015 -6.95746e-015
lhumerus 42.5816 -32.0232 30.056
lradius 42.2146
lwrist 53.8736
lhand 6.40682 18.3057
lfingers 7.12502
lthumb 31.7109 45.5692
rfemur -17.9059 8.56445 15.6014
rtibia 38.7233
rfoot -14.9786 -9.07971
rtoes -12.3451
lfemur -15.8151 -6.11131 -16.8458
ltibia 35.68
lfoot -13.764 3.87429
ltoes -10.9206
425
root 0.451284 15.5746 -1.3465 -1.30041 -1.94971 -0.0698796
lowerback 17.2205 0.467255 -1.40785
upperback 6.1706 0.355974 -0.446349
thorax -3.06368 0.165666 0.258313
lowerneck -13.2552 -6.70646 -10.265
upperneck 13.876 -8.74819 9.98772
head 7.33797 -3.92037 4.00285
rclavicle 1.78906e-015 -9.74045e-015
rhumerus 48.9755 33.3737 -28.7255
rradius 42.1884
rwrist -43.4999
rhand -3.02716 9.31285
rfingers 7.12502
rthumb 22.6879 -19.3734
lclavicle 1.78906e-015 -9.74045e-015
lhumerus 43.1316 -31.8573 30.0348
lradius 42.2279
lwrist 54.0407
lhand 6.74503 18.2679
lfingers 7.12502
lthumb 32.033 45.4672
rfemur -17.9571 8.4935 15.4965
rtibia 38.8594
rfoot -14.9953 -9.05452
rtoes -12.1206
lfemur -15.8507 -6.10336 -16.9493
ltibia 35.7713
lfoot -13.7492 3.81586
ltoes -11.2293
426
root 0.452935 15.5702 -1.35471 -1.27655 -1.90266 0.0596399
lowerback 17.2633 0.4843 -1.48235
upperback 6.22454 0.36413 -0.490549
thorax -3.02907 0.169152 0.252295
lowerneck -13.494 -6.74237 -10.2156
upperneck 13.8372 -8.78645 10.0082
head 7.37005 -3.92746 3.99102
rclavicle -2.5842e-015 5.76476e-015
rhumerus 49.5329 33.2477 -28.2966
rradius 42.3711
rwrist -43.8522
rhand -2.91327 9.34436
rfingers 7.12502
rthumb 22.7972 -19.3285
lclavicle -2.5842e-015 5.76476e-015
lhumerus 43.7071 -31.7077 29.9519
lradius 42.3229
lwrist 54.323
lhand 6.98384 18.2873
lfingers 7.12502
lthumb 32.2603 45.4407
rfemur -18.0971 8.38272 15.3287
rtibia 39.0155
rfoot -14.998 -9.00772
rtoes -12.2514
lfemur -15.9699 -6.12981 -17.0986
ltibia 35.8544
lfoot -13.7234 3.84406
ltoes -11.4491
427
root 0.453981 15.5667 -1.36201 -1.20777 -1.89902 0.0580273
lowerback 17.2374 0.488635 -1.42432
upperback 6.28024 0.379591 -0.509082
thorax -2.95624 0.176861 0.197293
lowerneck -13.7014 -6.76729 -10.2174
upperneck 13.7547 -8.8095 10.089
head 7.38615 -3.92633 4.01009
rclavicle -1.98785e-016 -1.0138e-014
rhumerus 50.1198 33.1439 -27.8858
rradius 42.5295
rwrist -44.1329
rhand -2.9068 9.38489
rfingers 7.12502
rthumb 22.8034 -19.2872
lclavicle -1.98785e-016 -1.0138e-014
lhumerus 44.2549 -31.5818 29.7176
lradius 42.5449
lwrist 54.8354
lhand 6.95461 18.3031
lfingers 7.12502
lthumb 32.2325 45.4621
rfemur -18.2773 8.35437 15.3087
rtibia 39.1552
rfoot -14.9806 -8.98976
rtoes -12.2923
lfemur -16.1409 -6.12013 -17.0866
ltibia 35.9573
lfoot -13.6941 3.85517
ltoes -11.5931
428
root 0.45446 15.5623 -1.36974 -1.13782 -1.87866 0.0579613
lowerback 17.2267 0.475839 -1.39609
upperback 6.32307 0.367269 -0.530052
thorax -2.90479 0.170816 0.161845
lowerneck -13.8537 -6.74395 -10.1396
upperneck 13.6427 -8.77802 10.1273
head 7.37134 -3.90054 4.0102
rclavicle -2.88238e-015 -1.17283e-014
rhumerus 50.7148 33.054 -27.542
rradius 42.6314
rwrist -44.406
rhand -2.91416 9.32674
rfingers 7.12502
rthumb 22.7963 -19.3462
lclavicle -2.88238e-015 -1.17283e-014
lhumerus 44.7643 -31.4422 29.5525
lradius 42.6639
lwrist 55.1647
lhand 7.10319 18.2625
lfingers 7.12502
lthumb 32.3739 45.3928
rfemur -18.4546 8.31503 15.288
rtibia 39.2904
rfoot -15.0073 -8.98962
rtoes -12.2348
lfemur -16.3139 -6.09757 -17.0711
ltibia 36.0705
lfoot -13.6948 3.78275
ltoes -11.5295
429
root 0.454409 15.5588 -1.37701 -1.1007 -1.83584 0.0587583
lowerback 17.2744 0.460881 -1.37583
upperback 6.33992 0.349874 -0.541365
thorax -2.91159 0.162525 0.141594
lowerneck -13.8258 -6.71319 -10.0766
upperneck 13.4151 -8.73818 10.1533
head 7.28685 -3.87928 4.0134
rclavicle -7.95139e-016 -2.98177e-015
rhumerus 51.2012 32.9895 -27.2945
rradius 42.7276
rwrist -44.6674
rhand -2.92767 9.31516
rfingers 7.12502
rthumb 22.7834 -19.3594
lclavicle -7.95139e-016 -2.98177e-015
lhumerus 45.2132 -31.3676 29.5007
lradius 42.703
lwrist 55.2534
lhand 7.21508 18.3396
lfingers 7.12502
lthumb 32.4804 45.448
rfemur -18.5773 8.26862 15.2743
rtibia 39.4145
rfoot -15.0499 -8.98976
rtoes -12.2135
lfemur -16.4523 -6.07913 -17.0682
ltibia 36.2025
lfoot -13.7298 3.72697
ltoes -11.4715
430
root 0.452452 15.5545 -1.38634 -1.07281 -1.78361 0.0903842
lowerback 17.3495 0.487116 -1.4132
upperback 6.36521 0.377312 -0.53638
thorax -2.92466 0.175737 0.16231
lowerneck -13.8039 -6.73744 -10.0784
upperneck 13.1397 -8.76075 10.2072
head 7.19923 -3.88921 4.0282
rclavicle 3.67752e-015 1.27222e-014
rhumerus 51.5898 32.891 -27.0315
rradius 42.8513
rwrist -44.9701
rhand -2.94359 9.24982
rfingers 7.12502
rthumb 22.7681 -19.4266
lclavicle 3.67752e-015 1.27222e-014
lhumerus 45.7734 -31.333 29.4676
lradius 42.6782
lwrist 55.2597
lhand 7.2358 18.3271
lfingers 7.12502
lthumb 32.5001 45.4314
rfemur -18.7135 8.2294 15.2356
rtibia 39.5455
rfoot -15.1407 -8.98275
rtoes -12.2051
lfemur -16.6054 -6.07747 -17.0804
ltibia 36.3364
lfoot -13.7649 3.63956
ltoes -11.0342
431
root 0.448647 15.5499 -1.39762 -1.01332 -1.72375 0.0916519
lowerback 17.3995 0.491236 -1.44613
upperback 6.40642 0.377065 -0.534454
thorax -2.90729 0.175094 0.18287
lowerneck -13.9783 -6.74905 -10.0106
upperneck 13.0416 -8.76918 10.2165
head 7.19614 -3.88477 4.01486
rclavicle -1.09332e-015 2.78299e-015
rhumerus 52.0795 32.8104 -26.6813
rradius 42.9957
rwrist -45.3159
rhand -3.07686 9.20281
rfingers 7.12502
rthumb 22.6402 -19.4893
lclavicle -1.09332e-015 2.78299e-015
lhumerus 46.3233 -31.2971 29.2511
lradius 42.7904
lwrist 55.4413
lhand 6.99169 18.3812
lfingers 7.12502
lthumb 32.2678 45.5331
rfemur -18.8974 8.21019 15.2286
rtibia 39.6793
rfoot -15.1757 -8.97347
rtoes -12.1194
lfemur -16.8032 -6.06884 -17.0447
ltibia 36.4462
lfoot -13.7824 3.66344
ltoes -11.2807
